# xmcd
#
# Track frame offsets: 
#        150
#        14368
#        36064
#        55848
#        79390
#        100632
#        116480
#        149964
#        179854
#        201109
#        223972
#
# Disc length: 3193 seconds
#
# Revision: 0
# Processed by: cddbd v1.5.2PL0 Copyright (c) Steve Scherf et al.
# Submitted via: ExactAudioCopy v1.3
#
DISCID=a90c770b
DTITLE=Trouble Cats - Live In Aarhus 2017
DYEAR=2017
DGENRE=Blues
TTITLE0=Heartbreaker
TTITLE1=Building a fence
TTITLE2=I'm lazy
TTITLE3=First time i met the blues
TTITLE4=City of dreams
TTITLE5=Lonely night blues
TTITLE6=That's all i want
TTITLE7=Telephone blues
TTITLE8=Selfmade man
TTITLE9=Blowin' the blues
TTITLE10=The trouble cat jump
EXTD=
EXTT0=
EXTT1=
EXTT2=
EXTT3=
EXTT4=
EXTT5=
EXTT6=
EXTT7=
EXTT8=
EXTT9=
EXTT10=
PLAYORDER=
